# xmcd
#
# Track frame offsets:
#	150
#	15618
#	29830
#	42296
#	55009
#	69466
#	82985
#	95689
#	109028
#	122693
#	138399
#	155199
#	165197
#	176225
#	190284
#	203454
#	217025
#	230620
#	243680
#	257798
#	271613
#	283912
#	297135
#	311499
#	322357
#
# Disc length: 4436 seconds
#
# Revision: 1
# Processed by: cddbd v1.5.2PL0 Copyright (c) Steve Scherf et al.
# Submitted via: audiograbber 1.83.01
#
DISCID=78115219
DTITLE=Wolfgang Hohlbein - Sturm CD 2
DYEAR=2007
DGENRE=Hörbuch
TTITLE0=26
TTITLE1=27
TTITLE2=28
TTITLE3=29
TTITLE4=30
TTITLE5=31
TTITLE6=32
TTITLE7=33
TTITLE8=34
TTITLE9=35
TTITLE10=36
TTITLE11=37
TTITLE12=38
TTITLE13=39
TTITLE14=40
TTITLE15=41
TTITLE16=42
TTITLE17=43
TTITLE18=44
TTITLE19=45
TTITLE20=46
TTITLE21=47
TTITLE22=48
TTITLE23=49
TTITLE24=50
EXTD=
EXTT0=
EXTT1=
EXTT2=
EXTT3=
EXTT4=
EXTT5=
EXTT6=
EXTT7=
EXTT8=
EXTT9=
EXTT10=
EXTT11=
EXTT12=
EXTT13=
EXTT14=
EXTT15=
EXTT16=
EXTT17=
EXTT18=
EXTT19=
EXTT20=
EXTT21=
EXTT22=
EXTT23=
EXTT24=
PLAYORDER=
